<svg width="406" height="17" viewBox="0 0 406 17" fill="none" xmlns="http://www.w3.org/2000/svg">
<path d="M175.5 6V4.5H174V6H172.5V3H171V1.5H174V0H175.5V1.5H178.5V3H177V6H175.5ZM180 15V12H178.5V7.5H181.5V6H186V7.5H189V12H187.5V15H180ZM186 13.5V10.5H187.5V9H184.5V7.5H183V9H180V10.5H181.5V13.5H183V12H184.5V13.5H186Z" fill="#CFECFA"/>
<path d="M239 6V4.5H240.5V6H242V3H243.5V1.5H240.5V0H239V1.5H236V3H237.5V6H239ZM234.5 15V12H236V7.5H233V6H228.5V7.5H225.5V12H227V15H234.5ZM228.5 13.5V10.5H227V9H230V7.5H231.5V9H234.5V10.5H233V13.5H231.5V12H230V13.5H228.5Z" fill="#CFECFA"/>
<path d="M208 16.5V15H206.5V16.5H200.5V9H199V4.5H203.5V3H205V1.5H209.5V3H211V4.5H215.5V9H214V16.5H208ZM212.5 15V10.5H211V9H212.5V7.5H214V6H209.5V4.5H208V3H206.5V4.5H205V6H200.5V7.5H202V9H203.5V10.5H202V15H205V13.5H209.5V15H212.5Z" fill="#CFECFA"/>
<path d="M298.091 16V14.2222H299.818V16H298.091ZM298.091 12.4444V10.6667H299.818V12.4444H298.091ZM303.273 10.6667V8.88889H305V10.6667H303.273ZM292.909 10.6667V8.88889H294.636V10.6667H292.909ZM298.091 5.33333V3.55556H299.818V5.33333H298.091ZM289.455 5.33333V3.55556H291.182V5.33333H289.455ZM286 5.33333V3.55556H287.727V5.33333H286ZM301.545 8.88889V10.6667H299.818V8.88889H301.545ZM296.364 10.6667V8.88889H298.091V10.6667H296.364ZM298.091 7.11111H299.818V8.88889H298.091V7.11111ZM289.455 0H291.182V1.77778H289.455V0ZM286 1.77778V0H287.727V1.77778H286ZM289.455 3.55556H287.727V1.77778H289.455V3.55556Z" fill="#CFECFA"/>
<path d="M399.091 16V14.2222H400.818V16H399.091ZM399.091 12.4444V10.6667H400.818V12.4444H399.091ZM404.273 10.6667V8.88889H406V10.6667H404.273ZM393.909 10.6667V8.88889H395.636V10.6667H393.909ZM399.091 5.33333V3.55556H400.818V5.33333H399.091ZM390.455 5.33333V3.55556H392.182V5.33333H390.455ZM387 5.33333V3.55556H388.727V5.33333H387ZM402.545 8.88889V10.6667H400.818V8.88889H402.545ZM397.364 10.6667V8.88889H399.091V10.6667H397.364ZM399.091 7.11111H400.818V8.88889H399.091V7.11111ZM390.455 0H392.182V1.77778H390.455V0ZM387 1.77778V0H388.727V1.77778H387ZM390.455 3.55556H388.727V1.77778H390.455V3.55556Z" fill="#CFECFA"/>
<path d="M116.909 16V14.2222H115.182V16H116.909ZM116.909 12.4444V10.6667H115.182V12.4444H116.909ZM111.727 10.6667V8.88889H110V10.6667H111.727ZM122.091 10.6667V8.88889H120.364V10.6667H122.091ZM116.909 5.33333V3.55556H115.182V5.33333H116.909ZM125.545 5.33333V3.55556H123.818V5.33333H125.545ZM129 5.33333V3.55556H127.273V5.33333H129ZM113.455 8.88889V10.6667H115.182V8.88889H113.455ZM118.636 10.6667V8.88889H116.909V10.6667H118.636ZM116.909 7.11111H115.182V8.88889H116.909V7.11111ZM125.545 0H123.818V1.77778H125.545V0ZM129 1.77778V0H127.273V1.77778H129ZM125.545 3.55556H127.273V1.77778H125.545V3.55556Z" fill="#CFECFA"/>
<path d="M6.90909 16V14.2222H5.18182V16H6.90909ZM6.90909 12.4444V10.6667H5.18182V12.4444H6.90909ZM1.72727 10.6667V8.88889H0V10.6667H1.72727ZM12.0909 10.6667V8.88889H10.3636V10.6667H12.0909ZM6.90909 5.33333V3.55556H5.18182V5.33333H6.90909ZM15.5455 5.33333V3.55556H13.8182V5.33333H15.5455ZM19 5.33333V3.55556H17.2727V5.33333H19ZM3.45455 8.88889V10.6667H5.18182V8.88889H3.45455ZM8.63636 10.6667V8.88889H6.90909V10.6667H8.63636ZM6.90909 7.11111H5.18182V8.88889H6.90909V7.11111ZM15.5455 0H13.8182V1.77778H15.5455V0ZM19 1.77778V0H17.2727V1.77778H19ZM15.5455 3.55556H17.2727V1.77778H15.5455V3.55556Z" fill="#CFECFA"/>
<path d="M276.5 10.8V9.5H281.7V10.8H276.5Z" fill="#CFECFA"/>
<path d="M270 10.8V9.5H275.2V10.8H270Z" fill="#CFECFA"/>
<path d="M263.5 10.8V9.5H268.7V10.8H263.5Z" fill="#CFECFA"/>
<path d="M257 10.8V9.5H262.2V10.8H257Z" fill="#CFECFA"/>
<path d="M250.5 10.8V9.5H255.7V10.8H250.5Z" fill="#CFECFA"/>
<path d="M244 10.8V9.5H249.2V10.8H244Z" fill="#CFECFA"/>
<path d="M378.5 10.8V9.5H383.7V10.8H378.5Z" fill="#CFECFA"/>
<path d="M372 10.8V9.5H377.2V10.8H372Z" fill="#CFECFA"/>
<path d="M365.5 10.8V9.5H370.7V10.8H365.5Z" fill="#CFECFA"/>
<path d="M359 10.8V9.5H364.2V10.8H359Z" fill="#CFECFA"/>
<path d="M352.5 10.8V9.5H357.7V10.8H352.5Z" fill="#CFECFA"/>
<path d="M346 10.8V9.5H351.2V10.8H346Z" fill="#CFECFA"/>
<path d="M346.5 10.8V9.5H351.7V10.8H346.5Z" fill="#CFECFA"/>
<path d="M340 10.8V9.5H345.2V10.8H340Z" fill="#CFECFA"/>
<path d="M333.5 10.8V9.5H338.7V10.8H333.5Z" fill="#CFECFA"/>
<path d="M327 10.8V9.5H332.2V10.8H327Z" fill="#CFECFA"/>
<path d="M320.5 10.8V9.5H325.7V10.8H320.5Z" fill="#CFECFA"/>
<path d="M314 10.8V9.5H319.2V10.8H314Z" fill="#CFECFA"/>
<path d="M94.5 10.8V9.5H99.7V10.8H94.5Z" fill="#CFECFA"/>
<path d="M88 10.8V9.5H93.2V10.8H88Z" fill="#CFECFA"/>
<path d="M81.5 10.8V9.5H86.7V10.8H81.5Z" fill="#CFECFA"/>
<path d="M75 10.8V9.5H80.2V10.8H75Z" fill="#CFECFA"/>
<path d="M68.5 10.8V9.5H73.7V10.8H68.5Z" fill="#CFECFA"/>
<path d="M62 10.8V9.5H67.2V10.8H62Z" fill="#CFECFA"/>
<path d="M165.5 10.8V9.5H170.7V10.8H165.5Z" fill="#CFECFA"/>
<path d="M159 10.8V9.5H164.2V10.8H159Z" fill="#CFECFA"/>
<path d="M152.5 10.8V9.5H157.7V10.8H152.5Z" fill="#CFECFA"/>
<path d="M146 10.8V9.5H151.2V10.8H146Z" fill="#CFECFA"/>
<path d="M139.5 10.8V9.5H144.7V10.8H139.5Z" fill="#CFECFA"/>
<path d="M133 10.8V9.5H138.2V10.8H133Z" fill="#CFECFA"/>
<path d="M55.5 10.8V9.5H60.7V10.8H55.5Z" fill="#CFECFA"/>
<path d="M49 10.8V9.5H54.2V10.8H49Z" fill="#CFECFA"/>
<path d="M42.5 10.8V9.5H47.7V10.8H42.5Z" fill="#CFECFA"/>
<path d="M36 10.8V9.5H41.2V10.8H36Z" fill="#CFECFA"/>
<path d="M29.5 10.8V9.5H34.7V10.8H29.5Z" fill="#CFECFA"/>
<path d="M23 10.8V9.5H28.2V10.8H23Z" fill="#CFECFA"/>
</svg>
