<svg width="26" height="26" viewBox="0 0 26 26" fill="none" xmlns="http://www.w3.org/2000/svg">
<path d="M24.003 7.99952V5.99978V3.99976H22.0033V2.00002H20.0033H18.001V0H16.0013H14.0013H12.0015H10.0015H7.99924V2.00002H5.9995H3.99948V3.99976H1.99974V5.99978V7.99952H0V10.0018V12.0018V14.0015V16.0016V18.0013H1.99974V20.0013V22.0036H3.99948V24.0033H5.9995H7.99924V26.0033H10.0015H12.0015H14.0013H16.0013H18.001V24.0033H20.0033H22.0033V22.0036H24.003V20.0013V18.0013H26.0031V16.0016V14.0015V12.0018V10.0018V7.99952H24.003Z" fill="#2E2C2B"/>
<path d="M22.0039 12.002V14.0017V16.0017V18.0015H24.0036V16.0017V14.0017V12.002H22.0039Z" fill="#E18917"/>
<path d="M20.0042 20.0015H18.002V22.0037H20.0042H22.0042V20.0015V18.0015H20.0042V20.0015Z" fill="#E18917"/>
<path d="M14.002 22.0034V24.0032H16.002H18.0017V22.0034H16.002H14.002Z" fill="#E18917"/>
<path d="M8 22.0034V24.0032H10.0023H12.0023V22.0034H10.0023H8Z" fill="#E18917"/>
<path d="M20.004 10.002V12.002H18.0017H16.002V14.0017H18.0017H20.004V16.0017H22.004V14.0017V12.002V10.002H20.004Z" fill="#B2640F"/>
<path d="M20.0042 16.0015H18.002V18.0012H20.0042V16.0015Z" fill="#B2640F"/>
<path d="M20.0042 7.99951H18.002V10.0018H20.0042V7.99951Z" fill="#B2640F"/>
<path d="M18.0017 18.0015H16.002V20.0012H18.0017V18.0015Z" fill="#B2640F"/>
<path d="M18.0017 6H16.002V7.99974H18.0017V6Z" fill="#B2640F"/>
<path d="M14.0017 18.0012V16.0015H12.002V18.0012V20.0012H10.002V22.0035H12.002H14.0017H16.0017V20.0012H14.0017V18.0012Z" fill="#B2640F"/>
<path d="M12.002 7.99976V10.002H14.0017V7.99976V6.00002H16.0017V4H14.0017H12.002H10.002V6.00002H12.002V7.99976Z" fill="#B2640F"/>
<path d="M10.0023 18.0015H8V20.0012H10.0023V18.0015Z" fill="#B2640F"/>
<path d="M10.0023 6H8V7.99974H10.0023V6Z" fill="#B2640F"/>
<path d="M7.99974 16.0015H6V18.0012H7.99974V16.0015Z" fill="#B2640F"/>
<path d="M7.99976 14.0017H10.002V12.002H7.99976H6.00002V10.002H4V12.002V14.0017V16.0017H6.00002V14.0017H7.99976Z" fill="#B2640F"/>
<path d="M7.99974 7.99951H6V10.0018H7.99974V7.99951Z" fill="#B2640F"/>
<path d="M22.004 7.99976V6.00002V4H20.004H18.0017H16.002V6.00002H18.0017V7.99976H20.004V10.002H22.004V12.002H24.0037V10.002V7.99976H22.004Z" fill="#EFA63B"/>
<path d="M22.0036 16.0015H20.0039V18.0012H22.0036V16.0015Z" fill="#EFA63B"/>
<path d="M20.0042 18.0015H18.002V20.0012H20.0042V18.0015Z" fill="#EFA63B"/>
<path d="M18.0017 20.0015H16.002V22.0037H18.0017V20.0015Z" fill="#EFA63B"/>
<path d="M16.0018 10.0018V7.99951H14.0018V10.0018H12.002V7.99951H10.002V10.0018H7.99974V12.0018H10.002V14.0015H7.99974H6V16.0016H7.99974V18.0013H10.002V20.0013H12.002V18.0013V16.0016H14.0018V18.0013V20.0013H16.0018V18.0013H18.0015V16.0016H20.0038V14.0015H18.0015H16.0018V12.0018H18.0015H20.0038V10.0018H18.0015H16.0018Z" fill="#EFA63B"/>
<path d="M16.0017 2H14.002V3.99974H16.0017V2Z" fill="#EFA63B"/>
<path d="M14.0017 22.0034H12.002V24.0032H14.0017V22.0034Z" fill="#EFA63B"/>
<path d="M10.0023 4H8V5.99974H10.0023V4Z" fill="#EFA63B"/>
<path d="M7.99976 18.0012H6.00002V16.0015H4V18.0012V20.0012V22.0035H6.00002H7.99976H10.002V20.0012H7.99976V18.0012Z" fill="#EFA63B"/>
<path d="M7.99974 6H6V7.99974H7.99974V6Z" fill="#EFA63B"/>
<path d="M5.99974 7.99951H4V10.0018H5.99974V7.99951Z" fill="#EFA63B"/>
<path d="M3.99974 12.002H2V14.0017H3.99974V12.002Z" fill="#EFA63B"/>
<path d="M18.0017 7.99951H16.002V10.0018H18.0017V7.99951Z" fill="#FEE382"/>
<path d="M18.0017 2H16.002V3.99974H18.0017V2Z" fill="#FEE382"/>
<path d="M16.0017 6H14.002V7.99974H16.0017V6Z" fill="#FEE382"/>
<path d="M14.002 2H12.0023H10.0023H8V3.99974H10.0023H12.0023H14.002V2Z" fill="#FEE382"/>
<path d="M12.0017 6H10.002V7.99974H12.0017V6Z" fill="#FEE382"/>
<path d="M10.0023 7.99951H8V10.0018H10.0023V7.99951Z" fill="#FEE382"/>
<path d="M7.99974 10.002H6V12.0017H7.99974V10.002Z" fill="#FEE382"/>
<path d="M4 4V6.00002V7.99976H6.00002V6.00002H7.99976V4H6.00002H4Z" fill="#FEE382"/>
<path d="M2 16.0015V18.0012H3.99974V16.0015V14.0015H2V16.0015Z" fill="#FEE382"/>
<path d="M2 10.0018V12.0018H3.99974V10.0018V7.99951H2V10.0018Z" fill="#FEE382"/>
<path d="M24.0039 7.99951V10.0018V12.0018V14.0015V16.0016V18.0013H26.0039V16.0016V14.0015V12.0018V10.0018V7.99951H24.0039Z" fill="#2E2C2B"/>
<path d="M22.0039 20.0015V22.0037H24.0036V20.0015V18.0015H22.0039V20.0015Z" fill="#2E2C2B"/>
<path d="M22.0039 7.99976H24.0036V6.00002V4H22.0039V6.00002V7.99976Z" fill="#2E2C2B"/>
<path d="M18.002 22.0034V24.0032H20.0042H22.0042V22.0034H20.0042H18.002Z" fill="#2E2C2B"/>
<path d="M20.0042 3.99974H22.0042V2H20.0042H18.002V3.99974H20.0042Z" fill="#2E2C2B"/>
<path d="M14.002 24.0034H12.0023H10.0023H8V26.0034H10.0023H12.0023H14.002H16.002H18.0018V24.0034H16.002H14.002Z" fill="#2E2C2B"/>
<path d="M12.0023 2.00002H14.002H16.002H18.0018V0H16.002H14.002H12.0023H10.0023H8V2.00002H10.0023H12.0023Z" fill="#2E2C2B"/>
<path d="M6.00002 22.0034H4V24.0032H6.00002H7.99976V22.0034H6.00002Z" fill="#2E2C2B"/>
<path d="M7.99976 3.99974V2H6.00002H4V3.99974H6.00002H7.99976Z" fill="#2E2C2B"/>
<path d="M3.99974 18.0015H2V20.0015V22.0037H3.99974V20.0015V18.0015Z" fill="#2E2C2B"/>
<path d="M3.99974 6.00002V4H2V6.00002V7.99976H3.99974V6.00002Z" fill="#2E2C2B"/>
<path d="M1.99974 14.0015V12.0018V10.0018V7.99951H0V10.0018V12.0018V14.0015V16.0016V18.0013H1.99974V16.0016V14.0015Z" fill="#2E2C2B"/>
</svg>
