<svg width="80" height="44" viewBox="0 0 80 44" fill="none" xmlns="http://www.w3.org/2000/svg">
<g filter="url(#filter0_d_561_139)">
<path d="M9.43767 20.1998C2.94108 10.8806 9.86704 5.93722 14.1421 4.63043C20.9971 2.65906 24.7084 4.5931 25.5671 5.80654C25.9778 5.4145 27.8521 4.41762 32.0637 3.56634C45.5945 0.743698 47.8945 6.08657 47.3531 9.11083L51.8335 10.511C51.9268 8.88681 52.696 5.22409 55.0258 3.56634C59.6406 0.206043 63.3332 3.02496 64.6026 4.85445C67.5149 1.60616 75.1876 3.06229 73.8435 12.3031C72.1857 23.773 63.9679 24.5496 60.0662 23.5041C59.7302 26.8084 57.042 29.2166 54.1297 30.5048C43.6568 33.7531 40.2965 27.2565 39.9044 27.2565H31.3916C28.9461 29.086 22.6773 32.9018 17.1664 33.529C4.62124 34.2459 6.78676 24.9416 9.43767 20.1998Z" fill="#FFFEED"/>
</g>
<path d="M12.1226 9.72306L11.68 7.82974L21.1466 5.61645L21.5892 7.50977L23.4825 7.06712L24.3679 10.8538L22.4745 11.2964L22.9172 13.1897L19.1305 14.075L18.6879 12.1817L16.7946 12.6244L17.2372 14.5177L19.1305 14.075L19.5732 15.9684L23.3598 15.0831L23.8025 16.9764L25.6958 16.5337L26.1385 18.427L28.0318 17.9844L29.3598 23.6643L27.4665 24.107L27.9091 26.0003L24.1225 26.8856L24.5651 28.779L13.2052 31.4349L12.7626 29.5416L10.8692 29.9842L9.54126 24.3043L11.4346 23.8616L10.9919 21.9683L14.7786 21.083L15.2212 22.9763L19.0079 22.091L18.5652 20.1977L14.7786 21.083L14.3359 19.1897L12.4426 19.6323L11.9999 17.739L10.1066 18.1817L8.77864 12.5017L10.672 12.059L10.2293 10.1657L12.1226 9.72306Z" fill="#3A75BB"/>
<path d="M30.6634 7.15115V5.58301H41.6404V7.15115H43.2085V10.2874H41.6404V11.8556H38.5041V18.1281H40.0723V22.8326H38.5041V24.4007H33.7997V21.2644H32.2315V13.4237H30.6634V14.9919H27.5271V13.4237H25.959V8.71929H27.5271V7.15115H30.6634Z" fill="#3A75BB"/>
<path d="M42.9847 14.655V11.9668H47.0171V13.3109V17.3433V21.3756H48.3612V22.7198H49.7054V21.3756H51.0495V18.6874V12.6739H55.0818V17.3433H56.426V24.0639H55.0818V26.7521H53.7377V28.0962H44.3289V26.7521H42.9847V24.0639H41.6406V14.655H42.9847Z" fill="#3A75BB"/>
<path d="M56.986 6.03064V4.68652H61.0183V6.03064H62.3625V14.0954H63.7066V10.063H65.0507V7.37477H66.3948V6.03064H69.0831V7.37477H70.4272V12.7512H69.0831V15.4395H67.7389V18.1277H66.3948V19.4719H65.0507V20.816H59.6742V19.4719H58.3301V16.7836H56.986V11.4071H55.6418V6.03064H56.986Z" fill="#3A75BB"/>
<rect x="26.519" y="9.39062" width="2.46422" height="1.34412" fill="white"/>
<rect x="56.426" y="6.81494" width="1.45613" height="1.34412" fill="white"/>
<rect x="42.6484" y="16.1118" width="1.23211" height="5.71251" fill="white"/>
<defs>
<filter id="filter0_d_561_139" x="0.979785" y="0.2" width="78.8202" height="43.1684" filterUnits="userSpaceOnUse" color-interpolation-filters="sRGB">
<feFlood flood-opacity="0" result="BackgroundImageFix"/>
<feColorMatrix in="SourceAlpha" type="matrix" values="0 0 0 0 0 0 0 0 0 0 0 0 0 0 0 0 0 0 127 0" result="hardAlpha"/>
<feOffset dy="4"/>
<feGaussianBlur stdDeviation="2.9"/>
<feComposite in2="hardAlpha" operator="out"/>
<feColorMatrix type="matrix" values="0 0 0 0 0.227451 0 0 0 0 0.458824 0 0 0 0 0.733333 0 0 0 0.5 0"/>
<feBlend mode="normal" in2="BackgroundImageFix" result="effect1_dropShadow_561_139"/>
<feBlend mode="normal" in="SourceGraphic" in2="effect1_dropShadow_561_139" result="shape"/>
</filter>
</defs>
</svg>
