<svg width="195" height="93" viewBox="0 0 195 93" fill="none" xmlns="http://www.w3.org/2000/svg">
<path d="M5 53V3H15V53H5ZM15 53H45V3H55V53H65V63H55V93H45V63H15V53Z" fill="#444444"/>
<path d="M75.0195 83V13H85.0195V83H75.0195ZM115.02 83V93H85.0195V83H115.02ZM115.02 3V13H85.0195V3H115.02ZM115.02 13H125.02V83H115.02V13Z" fill="#444444"/>
<path d="M134.98 53V3H144.98V53H134.98ZM144.98 53H174.98V3H184.98V53H194.98V63H184.98V93H174.98V63H144.98V53Z" fill="#444444"/>
<path d="M2 50V0H12V50H2ZM12 50H42V0H52V50H62V60H52V90H42V60H12V50Z" fill="#3A75BB"/>
<path d="M72.0195 80V10H82.0195V80H72.0195ZM112.02 80V90H82.0195V80H112.02ZM112.02 0V10H82.0195V0H112.02ZM112.02 10H122.02V80H112.02V10Z" fill="#3A75BB"/>
<path d="M131.98 50V0H141.98V50H131.98ZM141.98 50H171.98V0H181.98V50H191.98V60H181.98V90H171.98V60H141.98V50Z" fill="#3A75BB"/>
<path d="M0 18H10V28H0V18Z" fill="#CFECFA"/>
<path d="M68 66H78V76H68V66Z" fill="#CFECFA"/>
<path d="M115 18H125V28H115V18Z" fill="#CFECFA"/>
<path d="M135 6H145V16H135V6Z" fill="#CFECFA"/>
<path d="M175 71H185V81H175V71Z" fill="#CFECFA"/>
</svg>
