<svg width="205" height="133" viewBox="0 0 205 133" fill="none" xmlns="http://www.w3.org/2000/svg">
<path d="M5 73V23H15V73H5ZM15 73H45V23H55V73H65V83H55V113H45V83H15V73ZM75.0195 103V33H85.0195V103H75.0195ZM115.02 103V113H85.0195V103H115.02ZM115.02 23V33H85.0195V23H115.02ZM115.02 33H125.02V103H115.02V33ZM134.98 73V23H144.98V73H134.98ZM144.98 73H174.98V23H184.98V73H194.98V83H184.98V113H174.98V83H144.98V73Z" fill="#444444"/>
<path d="M2 70V20H12V70H2ZM12 70H42V20H52V70H62V80H52V110H42V80H12V70ZM72.0195 100V30H82.0195V100H72.0195ZM112.02 100V110H82.0195V100H112.02ZM112.02 20V30H82.0195V20H112.02ZM112.02 30H122.02V100H112.02V30ZM131.98 70V20H141.98V70H131.98ZM141.98 70H171.98V20H181.98V70H191.98V80H181.98V110H171.98V80H141.98V70Z" fill="#3A75BB"/>
<rect y="38" width="10" height="10" fill="#CFECFA"/>
<rect x="68" y="86" width="10" height="10" fill="#CFECFA"/>
<rect x="115" y="38" width="10" height="10" fill="#CFECFA"/>
<rect x="135" y="26" width="10" height="10" fill="#CFECFA"/>
<rect x="175" y="91" width="10" height="10" fill="#CFECFA"/>
</svg>
