<svg width="22" height="18" viewBox="0 0 22 18" fill="none" xmlns="http://www.w3.org/2000/svg">
<path d="M14 18.0015V16.0015H16V18.0015H14ZM14 14.0015V12.0015H16V14.0015H14ZM20 12.0015V10.0015H22V12.0015H20ZM8 12.0015V10.0015H10V12.0015H8ZM14 6.00146V4.00146H16V6.00146H14ZM4 6.00146V4.00146H6V6.00146H4ZM0 6.00146V4.00146H2V6.00146H0ZM18 10.0015V12.0015H16V10.0015H18ZM12 12.0015V10.0015H14V12.0015H12ZM14 8.00146H16V10.0015H14V8.00146ZM4 0.00146484H6V2.00146H4V0.00146484ZM0 2.00146V0.00146484H2V2.00146H0ZM4 4.00146H2V2.00146H4V4.00146Z" fill="black"/>
</svg>
