<svg width="22" height="18" viewBox="0 0 22 18" fill="none" xmlns="http://www.w3.org/2000/svg">
<path d="M6.00391 18.0015V16.0015H8.00391V18.0015H6.00391ZM6.00391 14.0015V12.0015H8.00391V14.0015H6.00391ZM12.0039 12.0015V10.0015H14.0039V12.0015H12.0039ZM0.00390625 12.0015V10.0015H2.00391V12.0015H0.00390625ZM20.0039 6.00146V4.00146H22.0039V6.00146H20.0039ZM16.0039 6.00146V4.00146H18.0039V6.00146H16.0039ZM6.00391 6.00146V4.00146H8.00391V6.00146H6.00391ZM10.0039 10.0015V12.0015H8.00391V10.0015H10.0039ZM4.00391 12.0015V10.0015H6.00391V12.0015H4.00391ZM6.00391 8.00146H8.00391V10.0015H6.00391V8.00146ZM20.0039 0.00146484H22.0039V2.00146H20.0039V0.00146484ZM16.0039 2.00146V0.00146484H18.0039V2.00146H16.0039ZM20.0039 4.00146H18.0039V2.00146H20.0039V4.00146Z" fill="black"/>
</svg>
