<svg width="1288" height="17" viewBox="0 0 1288 17" fill="none" xmlns="http://www.w3.org/2000/svg">
<path d="M7.65909 16.25V14.4722H5.93182V16.25H7.65909ZM7.65909 12.6944V10.9167H5.93182V12.6944H7.65909ZM2.47727 10.9167V9.13889H0.75V10.9167H2.47727ZM12.8409 10.9167V9.13889H11.1136V10.9167H12.8409ZM7.65909 5.58333V3.80556H5.93182V5.58333H7.65909ZM16.2955 5.58333V3.80556H14.5682V5.58333H16.2955ZM19.75 5.58333V3.80556H18.0227V5.58333H19.75ZM4.20455 9.13889V10.9167H5.93182V9.13889H4.20455ZM9.38636 10.9167V9.13889H7.65909V10.9167H9.38636ZM7.65909 7.36111H5.93182V9.13889H7.65909V7.36111ZM16.2955 0.25H14.5682V2.02778H16.2955V0.25ZM19.75 2.02778V0.25H18.0227V2.02778H19.75ZM16.2955 3.80556H18.0227V2.02778H16.2955V3.80556Z" fill="white"/>
<path d="M54.25 8.89961V7.59961H59.45V8.89961H54.25Z" fill="white"/>
<path d="M47.75 8.89961V7.59961H52.95V8.89961H47.75Z" fill="white"/>
<path d="M41.25 8.89961V7.59961H46.45V8.89961H41.25Z" fill="white"/>
<path d="M34.75 8.89961V7.59961H39.95V8.89961H34.75Z" fill="white"/>
<path d="M28.25 8.89961V7.59961H33.45V8.89961H28.25Z" fill="white"/>
<path d="M21.75 8.89961V7.59961H26.95V8.89961H21.75Z" fill="white"/>
<path d="M68.3583 16.25V14.4722H66.631V16.25H68.3583ZM68.3583 12.6944V10.9167H66.631V12.6944H68.3583ZM63.1765 10.9167V9.13889H61.4492V10.9167H63.1765ZM73.5401 10.9167V9.13889H71.8129V10.9167H73.5401ZM68.3583 5.58333V3.80556H66.631V5.58333H68.3583ZM76.9947 5.58333V3.80556H75.2674V5.58333H76.9947ZM80.4492 5.58333V3.80556H78.7219V5.58333H80.4492ZM64.9038 9.13889V10.9167H66.631V9.13889H64.9038ZM70.0856 10.9167V9.13889H68.3583V10.9167H70.0856ZM68.3583 7.36111H66.631V9.13889H68.3583V7.36111ZM76.9947 0.25H75.2674V2.02778H76.9947V0.25ZM80.4492 2.02778V0.25H78.7219V2.02778H80.4492ZM76.9947 3.80556H78.7219V2.02778H76.9947V3.80556Z" fill="white"/>
<path d="M114.949 8.89961V7.59961H120.149V8.89961H114.949Z" fill="white"/>
<path d="M108.449 8.89961V7.59961H113.649V8.89961H108.449Z" fill="white"/>
<path d="M101.949 8.89961V7.59961H107.149V8.89961H101.949Z" fill="white"/>
<path d="M95.4492 8.89961V7.59961H100.649V8.89961H95.4492Z" fill="white"/>
<path d="M88.9492 8.89961V7.59961H94.1492V8.89961H88.9492Z" fill="white"/>
<path d="M82.4492 8.89961V7.59961H87.6492V8.89961H82.4492Z" fill="white"/>
<path d="M129.059 16.25V14.4722H127.332V16.25H129.059ZM129.059 12.6944V10.9167H127.332V12.6944H129.059ZM123.878 10.9167V9.13889H122.15V10.9167H123.878ZM134.241 10.9167V9.13889H132.514V10.9167H134.241ZM129.059 5.58333V3.80556H127.332V5.58333H129.059ZM137.696 5.58333V3.80556H135.969V5.58333H137.696ZM141.15 5.58333V3.80556H139.423V5.58333H141.15ZM125.605 9.13889V10.9167H127.332V9.13889H125.605ZM130.787 10.9167V9.13889H129.059V10.9167H130.787ZM129.059 7.36111H127.332V9.13889H129.059V7.36111ZM137.696 0.25H135.969V2.02778H137.696V0.25ZM141.15 2.02778V0.25H139.423V2.02778H141.15ZM137.696 3.80556H139.423V2.02778H137.696V3.80556Z" fill="white"/>
<path d="M175.65 8.89961V7.59961H180.85V8.89961H175.65Z" fill="white"/>
<path d="M169.15 8.89961V7.59961H174.35V8.89961H169.15Z" fill="white"/>
<path d="M162.65 8.89961V7.59961H167.85V8.89961H162.65Z" fill="white"/>
<path d="M156.15 8.89961V7.59961H161.35V8.89961H156.15Z" fill="white"/>
<path d="M149.65 8.89961V7.59961H154.85V8.89961H149.65Z" fill="white"/>
<path d="M143.15 8.89961V7.59961H148.35V8.89961H143.15Z" fill="white"/>
<path d="M189.759 16.25V14.4722H188.031V16.25H189.759ZM189.759 12.6944V10.9167H188.031V12.6944H189.759ZM184.577 10.9167V9.13889H182.85V10.9167H184.577ZM194.941 10.9167V9.13889H193.213V10.9167H194.941ZM189.759 5.58333V3.80556H188.031V5.58333H189.759ZM198.395 5.58333V3.80556H196.668V5.58333H198.395ZM201.85 5.58333V3.80556H200.122V5.58333H201.85ZM186.304 9.13889V10.9167H188.031V9.13889H186.304ZM191.486 10.9167V9.13889H189.759V10.9167H191.486ZM189.759 7.36111H188.031V9.13889H189.759V7.36111ZM198.395 0.25H196.668V2.02778H198.395V0.25ZM201.85 2.02778V0.25H200.122V2.02778H201.85ZM198.395 3.80556H200.122V2.02778H198.395V3.80556Z" fill="white"/>
<path d="M236.35 8.89961V7.59961H241.55V8.89961H236.35Z" fill="white"/>
<path d="M229.85 8.89961V7.59961H235.05V8.89961H229.85Z" fill="white"/>
<path d="M223.35 8.89961V7.59961H228.55V8.89961H223.35Z" fill="white"/>
<path d="M216.85 8.89961V7.59961H222.05V8.89961H216.85Z" fill="white"/>
<path d="M210.35 8.89961V7.59961H215.55V8.89961H210.35Z" fill="white"/>
<path d="M203.85 8.89961V7.59961H209.05V8.89961H203.85Z" fill="white"/>
<path d="M250.46 16.25V14.4722H248.733V16.25H250.46ZM250.46 12.6944V10.9167H248.733V12.6944H250.46ZM245.278 10.9167V9.13889H243.551V10.9167H245.278ZM255.642 10.9167V9.13889H253.914V10.9167H255.642ZM250.46 5.58333V3.80556H248.733V5.58333H250.46ZM259.096 5.58333V3.80556H257.369V5.58333H259.096ZM262.551 5.58333V3.80556H260.824V5.58333H262.551ZM247.005 9.13889V10.9167H248.733V9.13889H247.005ZM252.187 10.9167V9.13889H250.46V10.9167H252.187ZM250.46 7.36111H248.733V9.13889H250.46V7.36111ZM259.096 0.25H257.369V2.02778H259.096V0.25ZM262.551 2.02778V0.25H260.824V2.02778H262.551ZM259.096 3.80556H260.824V2.02778H259.096V3.80556Z" fill="white"/>
<path d="M297.051 8.89961V7.59961H302.251V8.89961H297.051Z" fill="white"/>
<path d="M290.551 8.89961V7.59961H295.751V8.89961H290.551Z" fill="white"/>
<path d="M284.051 8.89961V7.59961H289.251V8.89961H284.051Z" fill="white"/>
<path d="M277.551 8.89961V7.59961H282.751V8.89961H277.551Z" fill="white"/>
<path d="M271.051 8.89961V7.59961H276.251V8.89961H271.051Z" fill="white"/>
<path d="M264.551 8.89961V7.59961H269.751V8.89961H264.551Z" fill="white"/>
<path d="M311.159 16.25V14.4722H309.432V16.25H311.159ZM311.159 12.6944V10.9167H309.432V12.6944H311.159ZM305.977 10.9167V9.13889H304.25V10.9167H305.977ZM316.341 10.9167V9.13889H314.614V10.9167H316.341ZM311.159 5.58333V3.80556H309.432V5.58333H311.159ZM319.795 5.58333V3.80556H318.068V5.58333H319.795ZM323.25 5.58333V3.80556H321.523V5.58333H323.25ZM307.705 9.13889V10.9167H309.432V9.13889H307.705ZM312.886 10.9167V9.13889H311.159V10.9167H312.886ZM311.159 7.36111H309.432V9.13889H311.159V7.36111ZM319.795 0.25H318.068V2.02778H319.795V0.25ZM323.25 2.02778V0.25H321.523V2.02778H323.25ZM319.795 3.80556H321.523V2.02778H319.795V3.80556Z" fill="white"/>
<path d="M357.75 8.89961V7.59961H362.95V8.89961H357.75Z" fill="white"/>
<path d="M351.25 8.89961V7.59961H356.45V8.89961H351.25Z" fill="white"/>
<path d="M344.75 8.89961V7.59961H349.95V8.89961H344.75Z" fill="white"/>
<path d="M338.25 8.89961V7.59961H343.45V8.89961H338.25Z" fill="white"/>
<path d="M331.75 8.89961V7.59961H336.95V8.89961H331.75Z" fill="white"/>
<path d="M325.25 8.89961V7.59961H330.45V8.89961H325.25Z" fill="white"/>
<path d="M371.858 16.25V14.4722H370.131V16.25H371.858ZM371.858 12.6944V10.9167H370.131V12.6944H371.858ZM366.676 10.9167V9.13889H364.949V10.9167H366.676ZM377.04 10.9167V9.13889H375.313V10.9167H377.04ZM371.858 5.58333V3.80556H370.131V5.58333H371.858ZM380.495 5.58333V3.80556H378.767V5.58333H380.495ZM383.949 5.58333V3.80556H382.222V5.58333H383.949ZM368.404 9.13889V10.9167H370.131V9.13889H368.404ZM373.586 10.9167V9.13889H371.858V10.9167H373.586ZM371.858 7.36111H370.131V9.13889H371.858V7.36111ZM380.495 0.25H378.767V2.02778H380.495V0.25ZM383.949 2.02778V0.25H382.222V2.02778H383.949ZM380.495 3.80556H382.222V2.02778H380.495V3.80556Z" fill="white"/>
<path d="M418.449 8.89961V7.59961H423.649V8.89961H418.449Z" fill="white"/>
<path d="M411.949 8.89961V7.59961H417.149V8.89961H411.949Z" fill="white"/>
<path d="M405.449 8.89961V7.59961H410.649V8.89961H405.449Z" fill="white"/>
<path d="M398.949 8.89961V7.59961H404.149V8.89961H398.949Z" fill="white"/>
<path d="M392.449 8.89961V7.59961H397.649V8.89961H392.449Z" fill="white"/>
<path d="M385.949 8.89961V7.59961H391.149V8.89961H385.949Z" fill="white"/>
<path d="M432.559 16.25V14.4722H430.832V16.25H432.559ZM432.559 12.6944V10.9167H430.832V12.6944H432.559ZM427.378 10.9167V9.13889H425.65V10.9167H427.378ZM437.741 10.9167V9.13889H436.014V10.9167H437.741ZM432.559 5.58333V3.80556H430.832V5.58333H432.559ZM441.196 5.58333V3.80556H439.469V5.58333H441.196ZM444.65 5.58333V3.80556H442.923V5.58333H444.65ZM429.105 9.13889V10.9167H430.832V9.13889H429.105ZM434.287 10.9167V9.13889H432.559V10.9167H434.287ZM432.559 7.36111H430.832V9.13889H432.559V7.36111ZM441.196 0.25H439.469V2.02778H441.196V0.25ZM444.65 2.02778V0.25H442.923V2.02778H444.65ZM441.196 3.80556H442.923V2.02778H441.196V3.80556Z" fill="white"/>
<path d="M479.15 8.89961V7.59961H484.35V8.89961H479.15Z" fill="white"/>
<path d="M472.65 8.89961V7.59961H477.85V8.89961H472.65Z" fill="white"/>
<path d="M466.15 8.89961V7.59961H471.35V8.89961H466.15Z" fill="white"/>
<path d="M459.65 8.89961V7.59961H464.85V8.89961H459.65Z" fill="white"/>
<path d="M453.15 8.89961V7.59961H458.35V8.89961H453.15Z" fill="white"/>
<path d="M446.65 8.89961V7.59961H451.85V8.89961H446.65Z" fill="white"/>
<path d="M493.259 16.25V14.4722H491.531V16.25H493.259ZM493.259 12.6944V10.9167H491.531V12.6944H493.259ZM488.077 10.9167V9.13889H486.35V10.9167H488.077ZM498.441 10.9167V9.13889H496.713V10.9167H498.441ZM493.259 5.58333V3.80556H491.531V5.58333H493.259ZM501.895 5.58333V3.80556H500.168V5.58333H501.895ZM505.35 5.58333V3.80556H503.622V5.58333H505.35ZM489.804 9.13889V10.9167H491.531V9.13889H489.804ZM494.986 10.9167V9.13889H493.259V10.9167H494.986ZM493.259 7.36111H491.531V9.13889H493.259V7.36111ZM501.895 0.25H500.168V2.02778H501.895V0.25ZM505.35 2.02778V0.25H503.622V2.02778H505.35ZM501.895 3.80556H503.622V2.02778H501.895V3.80556Z" fill="white"/>
<path d="M539.85 8.89961V7.59961H545.05V8.89961H539.85Z" fill="white"/>
<path d="M533.35 8.89961V7.59961H538.55V8.89961H533.35Z" fill="white"/>
<path d="M526.85 8.89961V7.59961H532.05V8.89961H526.85Z" fill="white"/>
<path d="M520.35 8.89961V7.59961H525.55V8.89961H520.35Z" fill="white"/>
<path d="M513.85 8.89961V7.59961H519.05V8.89961H513.85Z" fill="white"/>
<path d="M507.35 8.89961V7.59961H512.55V8.89961H507.35Z" fill="white"/>
<path d="M553.96 16.25V14.4722H552.233V16.25H553.96ZM553.96 12.6944V10.9167H552.233V12.6944H553.96ZM548.778 10.9167V9.13889H547.051V10.9167H548.778ZM559.142 10.9167V9.13889H557.414V10.9167H559.142ZM553.96 5.58333V3.80556H552.233V5.58333H553.96ZM562.596 5.58333V3.80556H560.869V5.58333H562.596ZM566.051 5.58333V3.80556H564.324V5.58333H566.051ZM550.505 9.13889V10.9167H552.233V9.13889H550.505ZM555.687 10.9167V9.13889H553.96V10.9167H555.687ZM553.96 7.36111H552.233V9.13889H553.96V7.36111ZM562.596 0.25H560.869V2.02778H562.596V0.25ZM566.051 2.02778V0.25H564.324V2.02778H566.051ZM562.596 3.80556H564.324V2.02778H562.596V3.80556Z" fill="white"/>
<path d="M600.551 8.89961V7.59961H605.751V8.89961H600.551Z" fill="white"/>
<path d="M594.051 8.89961V7.59961H599.251V8.89961H594.051Z" fill="white"/>
<path d="M587.551 8.89961V7.59961H592.751V8.89961H587.551Z" fill="white"/>
<path d="M581.051 8.89961V7.59961H586.251V8.89961H581.051Z" fill="white"/>
<path d="M574.551 8.89961V7.59961H579.751V8.89961H574.551Z" fill="white"/>
<path d="M568.051 8.89961V7.59961H573.251V8.89961H568.051Z" fill="white"/>
<path d="M612.25 6V4.5H610.75V6H609.25V3H607.75V1.5H610.75V0H612.25V1.5H615.25V3H613.75V6H612.25ZM616.75 15V12H615.25V7.5H618.25V6H622.75V7.5H625.75V12H624.25V15H616.75ZM622.75 13.5V10.5H624.25V9H621.25V7.5H619.75V9H616.75V10.5H618.25V13.5H619.75V12H621.25V13.5H622.75Z" fill="white"/>
<path d="M675.75 6V4.5H677.25V6H678.75V3H680.25V1.5H677.25V0H675.75V1.5H672.75V3H674.25V6H675.75ZM671.25 15V12H672.75V7.5H669.75V6H665.25V7.5H662.25V12H663.75V15H671.25ZM665.25 13.5V10.5H663.75V9H666.75V7.5H668.25V9H671.25V10.5H669.75V13.5H668.25V12H666.75V13.5H665.25Z" fill="white"/>
<path d="M644.75 16.5V15H643.25V16.5H637.25V9H635.75V4.5H640.25V3H641.75V1.5H646.25V3H647.75V4.5H652.25V9H650.75V16.5H644.75ZM649.25 15V10.5H647.75V9H649.25V7.5H650.75V6H646.25V4.5H644.75V3H643.25V4.5H641.75V6H637.25V7.5H638.75V9H640.25V10.5H638.75V15H641.75V13.5H646.25V15H649.25Z" fill="white"/>
<path d="M714.75 8.89961V7.59961H719.95V8.89961H714.75Z" fill="white"/>
<path d="M708.25 8.89961V7.59961H713.45V8.89961H708.25Z" fill="white"/>
<path d="M701.75 8.89961V7.59961H706.95V8.89961H701.75Z" fill="white"/>
<path d="M695.25 8.89961V7.59961H700.45V8.89961H695.25Z" fill="white"/>
<path d="M688.75 8.89961V7.59961H693.95V8.89961H688.75Z" fill="white"/>
<path d="M682.25 8.89961V7.59961H687.45V8.89961H682.25Z" fill="white"/>
<path d="M734.04 16.25V14.4722H735.767V16.25H734.04ZM734.04 12.6944V10.9167H735.767V12.6944H734.04ZM739.222 10.9167V9.13889H740.949V10.9167H739.222ZM728.858 10.9167V9.13889H730.586V10.9167H728.858ZM734.04 5.58333V3.80556H735.767V5.58333H734.04ZM725.404 5.58333V3.80556H727.131V5.58333H725.404ZM721.949 5.58333V3.80556H723.676V5.58333H721.949ZM737.495 9.13889V10.9167H735.767V9.13889H737.495ZM732.313 10.9167V9.13889H734.04V10.9167H732.313ZM734.04 7.36111H735.767V9.13889H734.04V7.36111ZM725.404 0.25H727.131V2.02778H725.404V0.25ZM721.949 2.02778V0.25H723.676V2.02778H721.949ZM725.404 3.80556H723.676V2.02778H725.404V3.80556Z" fill="white"/>
<path d="M775.449 8.89961V7.59961H780.649V8.89961H775.449Z" fill="white"/>
<path d="M768.949 8.89961V7.59961H774.149V8.89961H768.949Z" fill="white"/>
<path d="M762.449 8.89961V7.59961H767.649V8.89961H762.449Z" fill="white"/>
<path d="M755.949 8.89961V7.59961H761.149V8.89961H755.949Z" fill="white"/>
<path d="M749.449 8.89961V7.59961H754.649V8.89961H749.449Z" fill="white"/>
<path d="M742.949 8.89961V7.59961H748.149V8.89961H742.949Z" fill="white"/>
<path d="M794.741 16.25V14.4722H796.469V16.25H794.741ZM794.741 12.6944V10.9167H796.469V12.6944H794.741ZM799.923 10.9167V9.13889H801.65V10.9167H799.923ZM789.559 10.9167V9.13889H791.287V10.9167H789.559ZM794.741 5.58333V3.80556H796.469V5.58333H794.741ZM786.105 5.58333V3.80556H787.832V5.58333H786.105ZM782.65 5.58333V3.80556H784.378V5.58333H782.65ZM798.196 9.13889V10.9167H796.469V9.13889H798.196ZM793.014 10.9167V9.13889H794.741V10.9167H793.014ZM794.741 7.36111H796.469V9.13889H794.741V7.36111ZM786.105 0.25H787.832V2.02778H786.105V0.25ZM782.65 2.02778V0.25H784.378V2.02778H782.65ZM786.105 3.80556H784.378V2.02778H786.105V3.80556Z" fill="white"/>
<path d="M836.15 8.89961V7.59961H841.35V8.89961H836.15Z" fill="white"/>
<path d="M829.65 8.89961V7.59961H834.85V8.89961H829.65Z" fill="white"/>
<path d="M823.15 8.89961V7.59961H828.35V8.89961H823.15Z" fill="white"/>
<path d="M816.65 8.89961V7.59961H821.85V8.89961H816.65Z" fill="white"/>
<path d="M810.15 8.89961V7.59961H815.35V8.89961H810.15Z" fill="white"/>
<path d="M803.65 8.89961V7.59961H808.85V8.89961H803.65Z" fill="white"/>
<path d="M855.441 16.25V14.4722H857.168V16.25H855.441ZM855.441 12.6944V10.9167H857.168V12.6944H855.441ZM860.622 10.9167V9.13889H862.35V10.9167H860.622ZM850.259 10.9167V9.13889H851.986V10.9167H850.259ZM855.441 5.58333V3.80556H857.168V5.58333H855.441ZM846.804 5.58333V3.80556H848.531V5.58333H846.804ZM843.35 5.58333V3.80556H845.077V5.58333H843.35ZM858.895 9.13889V10.9167H857.168V9.13889H858.895ZM853.713 10.9167V9.13889H855.441V10.9167H853.713ZM855.441 7.36111H857.168V9.13889H855.441V7.36111ZM846.804 0.25H848.531V2.02778H846.804V0.25ZM843.35 2.02778V0.25H845.077V2.02778H843.35ZM846.804 3.80556H845.077V2.02778H846.804V3.80556Z" fill="white"/>
<path d="M896.85 8.89961V7.59961H902.05V8.89961H896.85Z" fill="white"/>
<path d="M890.35 8.89961V7.59961H895.55V8.89961H890.35Z" fill="white"/>
<path d="M883.85 8.89961V7.59961H889.05V8.89961H883.85Z" fill="white"/>
<path d="M877.35 8.89961V7.59961H882.55V8.89961H877.35Z" fill="white"/>
<path d="M870.85 8.89961V7.59961H876.05V8.89961H870.85Z" fill="white"/>
<path d="M864.35 8.89961V7.59961H869.55V8.89961H864.35Z" fill="white"/>
<path d="M916.142 16.25V14.4722H917.869V16.25H916.142ZM916.142 12.6944V10.9167H917.869V12.6944H916.142ZM921.324 10.9167V9.13889H923.051V10.9167H921.324ZM910.96 10.9167V9.13889H912.687V10.9167H910.96ZM916.142 5.58333V3.80556H917.869V5.58333H916.142ZM907.505 5.58333V3.80556H909.233V5.58333H907.505ZM904.051 5.58333V3.80556H905.778V5.58333H904.051ZM919.596 9.13889V10.9167H917.869V9.13889H919.596ZM914.414 10.9167V9.13889H916.142V10.9167H914.414ZM916.142 7.36111H917.869V9.13889H916.142V7.36111ZM907.505 0.25H909.233V2.02778H907.505V0.25ZM904.051 2.02778V0.25H905.778V2.02778H904.051ZM907.505 3.80556H905.778V2.02778H907.505V3.80556Z" fill="white"/>
<path d="M957.551 8.89961V7.59961H962.751V8.89961H957.551Z" fill="white"/>
<path d="M951.051 8.89961V7.59961H956.251V8.89961H951.051Z" fill="white"/>
<path d="M944.551 8.89961V7.59961H949.751V8.89961H944.551Z" fill="white"/>
<path d="M938.051 8.89961V7.59961H943.251V8.89961H938.051Z" fill="white"/>
<path d="M931.551 8.89961V7.59961H936.751V8.89961H931.551Z" fill="white"/>
<path d="M925.051 8.89961V7.59961H930.251V8.89961H925.051Z" fill="white"/>
<path d="M976.841 16.25V14.4722H978.568V16.25H976.841ZM976.841 12.6944V10.9167H978.568V12.6944H976.841ZM982.023 10.9167V9.13889H983.75V10.9167H982.023ZM971.659 10.9167V9.13889H973.386V10.9167H971.659ZM976.841 5.58333V3.80556H978.568V5.58333H976.841ZM968.205 5.58333V3.80556H969.932V5.58333H968.205ZM964.75 5.58333V3.80556H966.477V5.58333H964.75ZM980.295 9.13889V10.9167H978.568V9.13889H980.295ZM975.114 10.9167V9.13889H976.841V10.9167H975.114ZM976.841 7.36111H978.568V9.13889H976.841V7.36111ZM968.205 0.25H969.932V2.02778H968.205V0.25ZM964.75 2.02778V0.25H966.477V2.02778H964.75ZM968.205 3.80556H966.477V2.02778H968.205V3.80556Z" fill="white"/>
<path d="M1018.25 8.89961V7.59961H1023.45V8.89961H1018.25Z" fill="white"/>
<path d="M1011.75 8.89961V7.59961H1016.95V8.89961H1011.75Z" fill="white"/>
<path d="M1005.25 8.89961V7.59961H1010.45V8.89961H1005.25Z" fill="white"/>
<path d="M998.75 8.89961V7.59961H1003.95V8.89961H998.75Z" fill="white"/>
<path d="M992.25 8.89961V7.59961H997.45V8.89961H992.25Z" fill="white"/>
<path d="M985.75 8.89961V7.59961H990.95V8.89961H985.75Z" fill="white"/>
<path d="M1037.54 16.25V14.4722H1039.27V16.25H1037.54ZM1037.54 12.6944V10.9167H1039.27V12.6944H1037.54ZM1042.72 10.9167V9.13889H1044.45V10.9167H1042.72ZM1032.36 10.9167V9.13889H1034.09V10.9167H1032.36ZM1037.54 5.58333V3.80556H1039.27V5.58333H1037.54ZM1028.9 5.58333V3.80556H1030.63V5.58333H1028.9ZM1025.45 5.58333V3.80556H1027.18V5.58333H1025.45ZM1040.99 9.13889V10.9167H1039.27V9.13889H1040.99ZM1035.81 10.9167V9.13889H1037.54V10.9167H1035.81ZM1037.54 7.36111H1039.27V9.13889H1037.54V7.36111ZM1028.9 0.25H1030.63V2.02778H1028.9V0.25ZM1025.45 2.02778V0.25H1027.18V2.02778H1025.45ZM1028.9 3.80556H1027.18V2.02778H1028.9V3.80556Z" fill="white"/>
<path d="M1078.95 8.89961V7.59961H1084.15V8.89961H1078.95Z" fill="white"/>
<path d="M1072.45 8.89961V7.59961H1077.65V8.89961H1072.45Z" fill="white"/>
<path d="M1065.95 8.89961V7.59961H1071.15V8.89961H1065.95Z" fill="white"/>
<path d="M1059.45 8.89961V7.59961H1064.65V8.89961H1059.45Z" fill="white"/>
<path d="M1052.95 8.89961V7.59961H1058.15V8.89961H1052.95Z" fill="white"/>
<path d="M1046.45 8.89961V7.59961H1051.65V8.89961H1046.45Z" fill="white"/>
<path d="M1098.24 16.25V14.4722H1099.97V16.25H1098.24ZM1098.24 12.6944V10.9167H1099.97V12.6944H1098.24ZM1103.42 10.9167V9.13889H1105.15V10.9167H1103.42ZM1093.06 10.9167V9.13889H1094.79V10.9167H1093.06ZM1098.24 5.58333V3.80556H1099.97V5.58333H1098.24ZM1089.6 5.58333V3.80556H1091.33V5.58333H1089.6ZM1086.15 5.58333V3.80556H1087.88V5.58333H1086.15ZM1101.7 9.13889V10.9167H1099.97V9.13889H1101.7ZM1096.51 10.9167V9.13889H1098.24V10.9167H1096.51ZM1098.24 7.36111H1099.97V9.13889H1098.24V7.36111ZM1089.6 0.25H1091.33V2.02778H1089.6V0.25ZM1086.15 2.02778V0.25H1087.88V2.02778H1086.15ZM1089.6 3.80556H1087.88V2.02778H1089.6V3.80556Z" fill="white"/>
<path d="M1139.65 8.89961V7.59961H1144.85V8.89961H1139.65Z" fill="white"/>
<path d="M1133.15 8.89961V7.59961H1138.35V8.89961H1133.15Z" fill="white"/>
<path d="M1126.65 8.89961V7.59961H1131.85V8.89961H1126.65Z" fill="white"/>
<path d="M1120.15 8.89961V7.59961H1125.35V8.89961H1120.15Z" fill="white"/>
<path d="M1113.65 8.89961V7.59961H1118.85V8.89961H1113.65Z" fill="white"/>
<path d="M1107.15 8.89961V7.59961H1112.35V8.89961H1107.15Z" fill="white"/>
<path d="M1158.94 16.25V14.4722H1160.67V16.25H1158.94ZM1158.94 12.6944V10.9167H1160.67V12.6944H1158.94ZM1164.12 10.9167V9.13889H1165.85V10.9167H1164.12ZM1153.76 10.9167V9.13889H1155.49V10.9167H1153.76ZM1158.94 5.58333V3.80556H1160.67V5.58333H1158.94ZM1150.3 5.58333V3.80556H1152.03V5.58333H1150.3ZM1146.85 5.58333V3.80556H1148.58V5.58333H1146.85ZM1162.4 9.13889V10.9167H1160.67V9.13889H1162.4ZM1157.21 10.9167V9.13889H1158.94V10.9167H1157.21ZM1158.94 7.36111H1160.67V9.13889H1158.94V7.36111ZM1150.3 0.25H1152.03V2.02778H1150.3V0.25ZM1146.85 2.02778V0.25H1148.58V2.02778H1146.85ZM1150.3 3.80556H1148.58V2.02778H1150.3V3.80556Z" fill="white"/>
<path d="M1200.35 8.89961V7.59961H1205.55V8.89961H1200.35Z" fill="white"/>
<path d="M1193.85 8.89961V7.59961H1199.05V8.89961H1193.85Z" fill="white"/>
<path d="M1187.35 8.89961V7.59961H1192.55V8.89961H1187.35Z" fill="white"/>
<path d="M1180.85 8.89961V7.59961H1186.05V8.89961H1180.85Z" fill="white"/>
<path d="M1174.35 8.89961V7.59961H1179.55V8.89961H1174.35Z" fill="white"/>
<path d="M1167.85 8.89961V7.59961H1173.05V8.89961H1167.85Z" fill="white"/>
<path d="M1219.64 16.25V14.4722H1221.37V16.25H1219.64ZM1219.64 12.6944V10.9167H1221.37V12.6944H1219.64ZM1224.82 10.9167V9.13889H1226.55V10.9167H1224.82ZM1214.46 10.9167V9.13889H1216.19V10.9167H1214.46ZM1219.64 5.58333V3.80556H1221.37V5.58333H1219.64ZM1211.01 5.58333V3.80556H1212.73V5.58333H1211.01ZM1207.55 5.58333V3.80556H1209.28V5.58333H1207.55ZM1223.1 9.13889V10.9167H1221.37V9.13889H1223.1ZM1217.91 10.9167V9.13889H1219.64V10.9167H1217.91ZM1219.64 7.36111H1221.37V9.13889H1219.64V7.36111ZM1211.01 0.25H1212.73V2.02778H1211.01V0.25ZM1207.55 2.02778V0.25H1209.28V2.02778H1207.55ZM1211.01 3.80556H1209.28V2.02778H1211.01V3.80556Z" fill="white"/>
<path d="M1261.05 8.89961V7.59961H1266.25V8.89961H1261.05Z" fill="white"/>
<path d="M1254.55 8.89961V7.59961H1259.75V8.89961H1254.55Z" fill="white"/>
<path d="M1248.05 8.89961V7.59961H1253.25V8.89961H1248.05Z" fill="white"/>
<path d="M1241.55 8.89961V7.59961H1246.75V8.89961H1241.55Z" fill="white"/>
<path d="M1235.05 8.89961V7.59961H1240.25V8.89961H1235.05Z" fill="white"/>
<path d="M1228.55 8.89961V7.59961H1233.75V8.89961H1228.55Z" fill="white"/>
<path d="M1280.34 16.25V14.4722H1282.07V16.25H1280.34ZM1280.34 12.6944V10.9167H1282.07V12.6944H1280.34ZM1285.52 10.9167V9.13889H1287.25V10.9167H1285.52ZM1275.16 10.9167V9.13889H1276.89V10.9167H1275.16ZM1280.34 5.58333V3.80556H1282.07V5.58333H1280.34ZM1271.7 5.58333V3.80556H1273.43V5.58333H1271.7ZM1268.25 5.58333V3.80556H1269.98V5.58333H1268.25ZM1283.8 9.13889V10.9167H1282.07V9.13889H1283.8ZM1278.61 10.9167V9.13889H1280.34V10.9167H1278.61ZM1280.34 7.36111H1282.07V9.13889H1280.34V7.36111ZM1271.7 0.25H1273.43V2.02778H1271.7V0.25ZM1268.25 2.02778V0.25H1269.98V2.02778H1268.25ZM1271.7 3.80556H1269.98V2.02778H1271.7V3.80556Z" fill="white"/>
</svg>
