<svg width="195" height="17" viewBox="0 0 195 17" fill="none" xmlns="http://www.w3.org/2000/svg">
<path d="M65.5 6V4.5H64V6H62.5V3H61V1.5H64V0H65.5V1.5H68.5V3H67V6H65.5ZM70 15V12H68.5V7.5H71.5V6H76V7.5H79V12H77.5V15H70ZM76 13.5V10.5H77.5V9H74.5V7.5H73V9H70V10.5H71.5V13.5H73V12H74.5V13.5H76Z" fill="white"/>
<path d="M129 6V4.5H130.5V6H132V3H133.5V1.5H130.5V0H129V1.5H126V3H127.5V6H129ZM124.5 15V12H126V7.5H123V6H118.5V7.5H115.5V12H117V15H124.5ZM118.5 13.5V10.5H117V9H120V7.5H121.5V9H124.5V10.5H123V13.5H121.5V12H120V13.5H118.5Z" fill="white"/>
<path d="M98 16.5V15H96.5V16.5H90.5V9H89V4.5H93.5V3H95V1.5H99.5V3H101V4.5H105.5V9H104V16.5H98ZM102.5 15V10.5H101V9H102.5V7.5H104V6H99.5V4.5H98V3H96.5V4.5H95V6H90.5V7.5H92V9H93.5V10.5H92V15H95V13.5H99.5V15H102.5Z" fill="white"/>
<path d="M188.091 16V14.2222H189.818V16H188.091ZM188.091 12.4444V10.6667H189.818V12.4444H188.091ZM193.273 10.6667V8.88889H195V10.6667H193.273ZM182.909 10.6667V8.88889H184.636V10.6667H182.909ZM188.091 5.33333V3.55556H189.818V5.33333H188.091ZM179.455 5.33333V3.55556H181.182V5.33333H179.455ZM176 5.33333V3.55556H177.727V5.33333H176ZM191.545 8.88889V10.6667H189.818V8.88889H191.545ZM186.364 10.6667V8.88889H188.091V10.6667H186.364ZM188.091 7.11111H189.818V8.88889H188.091V7.11111ZM179.455 0H181.182V1.77778H179.455V0ZM176 1.77778V0H177.727V1.77778H176ZM179.455 3.55556H177.727V1.77778H179.455V3.55556Z" fill="white"/>
<path d="M6.90909 16V14.2222H5.18182V16H6.90909ZM6.90909 12.4444V10.6667H5.18182V12.4444H6.90909ZM1.72727 10.6667V8.88889H0V10.6667H1.72727ZM12.0909 10.6667V8.88889H10.3636V10.6667H12.0909ZM6.90909 5.33333V3.55556H5.18182V5.33333H6.90909ZM15.5455 5.33333V3.55556H13.8182V5.33333H15.5455ZM19 5.33333V3.55556H17.2727V5.33333H19ZM3.45455 8.88889V10.6667H5.18182V8.88889H3.45455ZM8.63636 10.6667V8.88889H6.90909V10.6667H8.63636ZM6.90909 7.11111H5.18182V8.88889H6.90909V7.11111ZM15.5455 0H13.8182V1.77778H15.5455V0ZM19 1.77778V0H17.2727V1.77778H19ZM15.5455 3.55556H17.2727V1.77778H15.5455V3.55556Z" fill="white"/>
<path d="M166.5 10.8V9.5H171.7V10.8H166.5Z" fill="white"/>
<path d="M160 10.8V9.5H165.2V10.8H160Z" fill="white"/>
<path d="M153.5 10.8V9.5H158.7V10.8H153.5Z" fill="white"/>
<path d="M147 10.8V9.5H152.2V10.8H147Z" fill="white"/>
<path d="M140.5 10.8V9.5H145.7V10.8H140.5Z" fill="white"/>
<path d="M134 10.8V9.5H139.2V10.8H134Z" fill="white"/>
<path d="M55.5 10.8V9.5H60.7V10.8H55.5Z" fill="white"/>
<path d="M49 10.8V9.5H54.2V10.8H49Z" fill="white"/>
<path d="M42.5 10.8V9.5H47.7V10.8H42.5Z" fill="white"/>
<path d="M36 10.8V9.5H41.2V10.8H36Z" fill="white"/>
<path d="M29.5 10.8V9.5H34.7V10.8H29.5Z" fill="white"/>
<path d="M23 10.8V9.5H28.2V10.8H23Z" fill="white"/>
</svg>
